<?xml version="1.0" encoding="UTF-8"?>
<svg width="65px" height="65px" viewBox="0 0 65 65" version="1.1" xmlns="http://www.w3.org/2000/svg" xmlns:xlink="http://www.w3.org/1999/xlink">
    <title>6DC00D0D-B9B5-4657-ACD6-095CF197B2D4</title>
    <g id="State-Hack-CMV" stroke="none" stroke-width="1" fill="none" fill-rule="evenodd">
        <g id="cmv-1" transform="translate(-66.000000, -242.000000)">
            <g id="control/secondary/radio-block-button-(default)" transform="translate(42.000000, 222.000000)">
                <g id="icon/-pink-/-bg(default)" transform="translate(24.000000, 20.000000)">
                    <g id="Group-7" fill="#F497AA">
                        <circle id="Oval" cx="32.5" cy="32.5" r="32.5"></circle>
                    </g>
                    <g id="ico/d/active/accident" transform="translate(15.000000, 15.000000)">
                        <g id="Group-Copy" transform="translate(1.000000, 10.092221)">
                            <path d="M1.0641447,5.11620544 L23.3763615,5.11620544 C28.4004826,5.69789489 31.4403682,6.87550719 32.4960183,8.64904235 C32.5035378,8.72109174 32.5035378,10.2211839 32.4960183,13.1493188 C12.900657,13.1493188 3.01769101,13.1493188 2.84712042,13.1493188 C0.649499047,12.3867322 0.0551738074,9.7090277 1.0641447,5.11620544 Z" id="Path-11" fill="#029FDE"></path>
                            <circle id="Oval" fill="#FFFFFF" cx="7.77859015" cy="13.1773348" r="3.06428571"></circle>
                            <circle id="Oval-Copy" fill="#FFFFFF" cx="25.6928759" cy="13.1773348" r="3.06428571"></circle>
                            <path d="M4.04261079,5.00813136 C5.93338925,2.22483058 8.1838008,0.833180185 10.7938454,0.833180185 C13.4038901,0.833180185 15.8359597,0.833180185 18.0900543,0.833180185 C20.3341936,1.1125782 22.1538441,2.56672902 23.5490057,5.19563265 C22.8862115,5.18396186 16.3840798,5.12146143 4.04261079,5.00813136 Z" id="Path-12" stroke="#979797" fill="#FFFFFF"></path>
                            <path d="M32.8321413,8.22179837 C32.6882721,8.07792916 29.9547571,4.69700272 23.9841849,4.58910082 C23.4087081,3.58201635 21.2147026,0.308991826 17.6539397,0.308991826 L17.5460378,0.308991826 L11.143858,0.273024523 L10.676283,0.273024523 C10.5324138,0.273024523 7.15148738,0.021253406 3.62669174,4.55313351 L0.893176756,4.55313351 C0.641405638,4.55313351 0.425601824,4.73297003 0.353667219,4.98474114 C0.317699916,5.20054496 -0.761319157,10.3798365 1.03704597,12.6098093 C1.6125228,13.293188 2.36783616,13.652861 3.30298602,13.652861 L4.05829937,13.652861 C4.31007049,15.4512262 5.85666449,16.8179837 7.72696422,16.8179837 C9.59726395,16.8179837 11.143858,15.4512262 11.3956291,13.652861 L21.8980814,13.652861 C22.1498525,15.4512262 23.6964465,16.8179837 25.5667462,16.8179837 C27.437046,16.8179837 28.98364,15.4512262 29.2354111,13.652861 L32.4005337,13.652861 C32.6882721,13.652861 32.9400432,13.4010899 32.9400432,13.1133515 L32.9400432,8.54550409 C32.9400432,8.43760218 32.9040759,8.29373297 32.8321413,8.22179837 Z M17.6539397,1.3520436 C20.1716509,1.3520436 21.8980814,3.43814714 22.689362,4.58910082 L14.8844574,4.58910082 L14.8844574,1.3520436 L17.6539397,1.3520436 L17.6539397,1.3520436 Z M10.6403157,1.3520436 L13.8414056,1.3520436 L13.8414056,4.58910082 L5.02941654,4.58910082 C7.94276804,1.24414169 10.5683811,1.3520436 10.6403157,1.3520436 Z M7.72696422,15.7749319 C6.28827212,15.7749319 5.10135114,14.5880109 5.10135114,13.1493188 C5.10135114,11.7106267 6.28827212,10.5237057 7.72696422,10.5237057 C9.16565632,10.5237057 10.3525773,11.7106267 10.3525773,13.1493188 C10.3885446,14.5880109 9.20162362,15.7749319 7.72696422,15.7749319 Z M25.5667462,15.7749319 C24.1280541,15.7749319 22.9411332,14.5880109 22.9411332,13.1493188 C22.9411332,11.7106267 24.1280541,10.5237057 25.5667462,10.5237057 C27.0054383,10.5237057 28.1923593,11.7106267 28.1923593,13.1493188 C28.1923593,14.5880109 27.0414056,15.7749319 25.5667462,15.7749319 Z M31.8610242,12.6098093 L29.2354111,12.6098093 C28.98364,10.8114441 27.437046,9.44468665 25.5667462,9.44468665 C23.6964465,9.44468665 22.1498525,10.8114441 21.8980814,12.6098093 L11.3956291,12.6098093 C11.143858,10.8114441 9.59726395,9.44468665 7.72696422,9.44468665 C5.85666449,9.44468665 4.31007049,10.8114441 4.05829937,12.6098093 L3.30298602,12.6098093 C2.69154188,12.6098093 2.22396695,12.3940054 1.86429392,11.9623978 C0.749307546,10.559673 1.03704597,7.2866485 1.32478439,5.66811989 L3.87846286,5.66811989 L23.6604792,5.66811989 C28.6599342,5.66811989 31.2855473,8.14986376 31.8610242,8.7613079 L31.8610242,12.6098093 Z" id="Shape" fill="#000000" fill-rule="nonzero"></path>
                        </g>
                    </g>
                </g>
            </g>
        </g>
    </g>
</svg>