<?xml version="1.0" encoding="UTF-8"?>
<svg width="65px" height="65px" viewBox="0 0 65 65" version="1.1" xmlns="http://www.w3.org/2000/svg" xmlns:xlink="http://www.w3.org/1999/xlink">
    <title>B554B7FF-23FD-4B01-B849-1DB23F4E91C3</title>
    <defs>
        <path d="M18.7309434,0.423301887 L13.6288679,4.42584906 L11.5968868,4.42584906 L6.49481132,0.423301887 C6.49481132,0.423301887 3.72650943,-0.354622642 1.30556604,2.84556604 L1.30556604,2.84556604 C-1.55650943,6.62556604 1.65160377,15.7315094 1.65160377,15.7315094 L1.65160377,15.7315094 L12.6125472,15.7315094 L23.5748113,15.7315094 C23.5748113,15.7315094 26.7822642,6.62556604 23.9208491,2.84556604 L23.9208491,2.84556604 C22.2910377,0.692075472 20.504717,0.340052354 19.5101887,0.340052354 L19.5101887,0.340052354 C19.0267925,0.340052354 18.7309434,0.423301887 18.7309434,0.423301887 L18.7309434,0.423301887 Z" id="path-1"></path>
    </defs>
    <g id="State-Hack-CMV" stroke="none" stroke-width="1" fill="none" fill-rule="evenodd">
        <g id="cmv-1" transform="translate(-65.000000, -369.000000)">
            <g id="Group" transform="translate(42.000000, 349.000000)">
                <g id="icon/-pink-/-bg(default)" transform="translate(23.000000, 20.000000)">
                    <g id="Group-7" fill="#F497AA">
                        <circle id="Oval" cx="32.5" cy="32.5" r="32.5"></circle>
                    </g>
                    <g id="ico/d/active/accident" transform="translate(15.000000, 15.000000)">
                        <g id="Group-9" transform="translate(4.000000, 0.000000)">
                            <g id="Group-3" transform="translate(0.660377, 18.442821)">
                                <mask id="mask-2" fill="white">
                                    <use xlink:href="#path-1"></use>
                                </mask>
                                <g id="Clip-2"></g>
                                <polygon id="Fill-1" fill="#029FDE" mask="url(#mask-2)" points="-3.30188679 19.1516038 28.5283019 19.1516038 28.5283019 -3.07867925 -3.30188679 -3.07867925"></polygon>
                            </g>
                            <g id="Group-8" transform="translate(0.000000, 0.612632)">
                                <path d="M2.66904717,33.0666792 L23.8777264,33.0666792 C24.4053679,31.4236604 26.5581981,24.1093208 24.1861226,20.9745094 C22.2221604,18.3798868 20.0587642,18.6275283 19.6097075,18.7120566 L14.4600849,22.7515849 L12.0860283,22.7515849 L6.93640566,18.7113962 C6.48206604,18.623566 4.33121698,18.3713019 2.36131132,20.9745094 C-0.0120849057,24.1093208 2.14140566,31.4236604 2.66904717,33.0666792 L2.66904717,33.0666792 Z M24.5856509,34.0572453 L1.96112264,34.0572453 L1.84423585,33.7263962 C1.70951887,33.3440377 -1.41736792,24.3246038 1.57083962,20.3768679 C4.16678302,16.9468679 7.16225472,17.7406415 7.28970755,17.7769623 L7.38414151,17.8033774 L12.4287642,21.7610189 L14.1180094,21.7610189 L19.1632925,17.8033774 L19.2577264,17.7769623 C19.3838585,17.7406415 22.3793302,16.9468679 24.975934,20.3768679 C27.9641415,24.3246038 24.8365943,33.3440377 24.7025377,33.7263962 L24.5856509,34.0572453 Z" id="Fill-4" fill="#221E1F"></path>
                                <path d="M13.2731887,1.03837736 C9.17026415,1.03837736 5.83139623,4.37658491 5.83139623,8.48016981 C5.83139623,12.5830943 9.17026415,15.9213019 13.2731887,15.9213019 C17.3761132,15.9213019 20.7149811,12.5830943 20.7149811,8.48016981 C20.7149811,4.37658491 17.3761132,1.03837736 13.2731887,1.03837736 M13.2731887,16.9118679 C8.6234717,16.9118679 4.84083019,13.1292264 4.84083019,8.48016981 C4.84083019,3.83045283 8.6234717,0.0478113208 13.2731887,0.0478113208 C17.9229057,0.0478113208 21.7055472,3.83045283 21.7055472,8.48016981 C21.7055472,13.1292264 17.9229057,16.9118679 13.2731887,16.9118679" id="Fill-6" fill="#221E1F"></path>
                                <path d="M13.2731887,1.03837736 C9.17026415,1.03837736 5.83139623,4.37658491 5.83139623,8.48016981 C5.83139623,12.5830943 9.17026415,15.9213019 13.2731887,15.9213019 C17.3761132,15.9213019 20.7149811,12.5830943 20.7149811,8.48016981 C20.7149811,4.37658491 17.3761132,1.03837736 13.2731887,1.03837736" id="Path" fill="#FFFFFF"></path>
                            </g>
                        </g>
                    </g>
                </g>
            </g>
        </g>
    </g>
</svg>